<svg xmlns="http://www.w3.org/2000/svg" xmlns:xlink="http://www.w3.org/1999/xlink" viewBox="0,0,256,256" width="16px" height="16px" fill-rule="nonzero"><g fill="#ffffff" fill-rule="nonzero" stroke="none" stroke-width="1" stroke-linecap="butt" stroke-linejoin="miter" stroke-miterlimit="10" stroke-dasharray="" stroke-dashoffset="0" font-family="none" font-weight="none" font-size="none" text-anchor="none" style="mix-blend-mode: normal"><g transform="scale(8,8)"><path d="M7.64648,6.50977c-0.253,-0.03775 -0.51969,0.02105 -0.74219,0.18555c-0.443,0.329 -0.53798,0.95639 -0.20898,1.40039c2.4715,3.33841 5.12283,6.4293 7.87695,9.22266c-2.49311,2.39779 -5.05609,4.54803 -7.64648,6.36328c-0.453,0.317 -0.56114,0.94058 -0.24414,1.39258c0.195,0.278 0.50531,0.42578 0.82031,0.42578c0.198,0 0.39631,-0.05869 0.57031,-0.17969c2.68779,-1.88353 5.34638,-4.11314 7.92773,-6.59961c2.58118,2.48613 5.23818,4.71426 7.92578,6.59766c0.175,0.122 0.37427,0.18164 0.57227,0.18164c0.315,0 0.62731,-0.14873 0.82031,-0.42773c0.317,-0.453 0.20691,-1.07558 -0.24609,-1.39258c-2.5904,-1.81525 -5.15337,-3.96353 -7.64648,-6.36133c2.75418,-2.79351 5.4054,-5.88465 7.87695,-9.22266c0.329,-0.444 0.23697,-1.06944 -0.20703,-1.39844c-0.444,-0.329 -1.07139,-0.23597 -1.40039,0.20703c-2.41756,3.26516 -5.00723,6.28736 -7.69531,9.01367c-2.68843,-2.72657 -5.27941,-5.74811 -7.69727,-9.01367c-0.1645,-0.2215 -0.40325,-0.35678 -0.65625,-0.39453z"></path></g></g></svg>