<!-- icon666.com - MILLIONS vector ICONS FREE --><svg id="Layer_1" viewBox="0 0 70 70" xmlns="http://www.w3.org/2000/svg" data-name="Layer 1"><path d="m35 59.5a.5.5 0 0 1 -.4-.2c-.674-.924-16.523-22.738-16.523-31.868a16.927 16.927 0 0 1 33.854 0c0 9.13-15.849 30.944-16.523 31.868a.5.5 0 0 1 -.408.2zm0-48a15.945 15.945 0 0 0 -15.927 15.927c0 8.019 13.409 27.188 15.927 30.717 2.518-3.529 15.927-22.7 15.927-30.717a15.945 15.945 0 0 0 -15.927-15.927z"></path><path d="m35 37.271a9.98 9.98 0 1 1 9.98-9.98 9.991 9.991 0 0 1 -9.98 9.98zm0-18.96a8.98 8.98 0 1 0 8.98 8.98 8.99 8.99 0 0 0 -8.98-8.98z"></path></svg>